<svg width="234" height="144" viewBox="0 0 234 144" fill="none" xmlns="http://www.w3.org/2000/svg">
<path d="M162.515 142.382V97.0993H171.515V142.382H162.515ZM171.515 73.3818V82.3818H162.515V73.3818H171.515Z" stroke="black" stroke-width="3"/>
<path d="M34.2654 142.382V97.3824H43.2654V117.69C43.2654 119.839 45.7982 120.986 47.414 119.569L72.705 97.3824H88.7592L69.2699 114.357C68.2428 115.252 68.1209 116.804 68.9956 117.848L89.5517 142.382H75.5153L61.9974 124.358C61.1153 123.182 59.4138 123.018 58.3225 124.002L44.0905 136.846L45.0954 137.96L44.0905 136.846C43.5652 137.32 43.2654 137.994 43.2654 138.702V142.382H34.2654Z" stroke="black" stroke-width="3"/>
<mask id="path-3-inside-1_92_67" fill="white">
<path fill-rule="evenodd" clip-rule="evenodd" d="M97.5154 95.8824C96.9631 95.8824 96.5154 96.3302 96.5154 96.8824V142.882C96.5154 143.435 96.9631 143.882 97.5154 143.882H120.515C139.929 143.591 156.753 137.777 156.89 119.507C156.529 102.337 140.451 96.1851 121.265 95.8824H97.5154ZM111.765 107.882C111.213 107.882 110.765 108.33 110.765 108.882V131.632C110.765 132.185 111.213 132.632 111.765 132.632H123.287C133.416 132.482 142.194 129.484 142.265 120.064C142.077 111.211 133.688 108.038 123.678 107.882H111.765Z"/>
</mask>
<path d="M120.515 143.882V146.882H120.538L120.56 146.882L120.515 143.882ZM156.89 119.507L159.89 119.53L159.891 119.487L159.89 119.444L156.89 119.507ZM121.265 95.8824L121.313 92.8828L121.289 92.8824H121.265V95.8824ZM123.287 132.632V135.632H123.309L123.332 135.632L123.287 132.632ZM142.265 120.064L145.265 120.087L145.266 120.044L145.265 120L142.265 120.064ZM123.678 107.882L123.725 104.883L123.702 104.882H123.678V107.882ZM99.5154 142.882V96.8824H93.5154V142.882H99.5154ZM120.515 140.882H97.5154V146.882H120.515V140.882ZM153.89 119.485C153.83 127.475 150.234 132.546 144.451 135.828C138.445 139.236 129.981 140.74 120.47 140.883L120.56 146.882C130.463 146.734 140.118 145.185 147.412 141.046C154.929 136.781 159.813 129.81 159.89 119.53L153.89 119.485ZM121.218 98.8821C130.585 99.0298 138.812 100.613 144.64 103.969C150.275 107.215 153.734 112.128 153.891 119.571L159.89 119.444C159.685 109.717 154.924 102.968 147.634 98.7698C140.536 94.6819 131.131 93.0377 121.313 92.8828L121.218 98.8821ZM97.5154 98.8824H121.265V92.8824H97.5154V98.8824ZM113.765 131.632V108.882H107.765V131.632H113.765ZM123.287 129.632H111.765V135.632H123.287V129.632ZM139.265 120.041C139.238 123.589 137.687 125.746 135.08 127.208C132.251 128.794 128.114 129.561 123.243 129.633L123.332 135.632C128.589 135.554 133.905 134.746 138.015 132.441C142.347 130.012 145.221 125.959 145.265 120.087L139.265 120.041ZM123.632 110.882C128.414 110.957 132.43 111.759 135.171 113.319C137.719 114.77 139.196 116.86 139.266 120.128L145.265 120C145.146 114.414 142.334 110.492 138.139 108.104C134.135 105.826 128.952 104.964 123.725 104.883L123.632 110.882ZM111.765 110.882H123.678V104.882H111.765V110.882ZM113.765 108.882C113.765 109.987 112.87 110.882 111.765 110.882V104.882C109.556 104.882 107.765 106.673 107.765 108.882H113.765ZM99.5154 96.8824C99.5154 97.987 98.6199 98.8824 97.5154 98.8824V92.8824C95.3062 92.8824 93.5154 94.6733 93.5154 96.8824H99.5154ZM107.765 131.632C107.765 133.842 109.556 135.632 111.765 135.632V129.632C112.87 129.632 113.765 130.528 113.765 131.632H107.765ZM93.5154 142.882C93.5154 145.092 95.3062 146.882 97.5154 146.882V140.882C98.62 140.882 99.5154 141.778 99.5154 142.882H93.5154Z" fill="black" mask="url(#path-3-inside-1_92_67)"/>
<mask id="path-5-inside-2_92_67" fill="white">
<path fill-rule="evenodd" clip-rule="evenodd" d="M32.7654 82.8819C32.7654 83.4342 33.2131 83.8819 33.7654 83.8819H43.7654C44.3177 83.8819 44.7654 83.4342 44.7654 82.8819V71.8819V60.8819C44.7654 60.3296 45.2131 59.8819 45.7654 59.8819H188.14C188.692 59.8819 189.14 60.3296 189.14 60.8819V130.882C189.14 131.434 188.692 131.882 188.14 131.882H177.765C177.213 131.882 176.765 132.33 176.765 132.882V142.882C176.765 143.434 177.213 143.882 177.765 143.882H200.14C200.692 143.882 201.14 143.434 201.14 142.882V55.5234C201.14 54.7744 201.933 54.2912 202.599 54.6348L212.549 59.7705C212.691 59.8437 212.848 59.8819 213.008 59.8819H232.529C233.584 59.8819 233.92 58.4594 232.976 57.9875L117.213 0.105573C116.931 -0.0351908 116.6 -0.0351911 116.318 0.105573L0.554285 57.9875C-0.389536 58.4594 -0.0537281 59.8819 1.0015 59.8819H20.5294C20.6846 59.8819 20.8377 59.8458 20.9766 59.7763L31.3182 54.6055C31.9831 54.2731 32.7654 54.7566 32.7654 55.4999V82.8819ZM49.0014 47.8819C47.9462 47.8819 47.6104 46.4594 48.5542 45.9875L116.318 12.1056C116.6 11.9648 116.931 11.9648 117.213 12.1056L184.976 45.9875C185.92 46.4594 185.584 47.8819 184.529 47.8819H49.0014Z"/>
</mask>
<path d="M184.976 45.9875L186.318 43.3042L184.976 45.9875ZM48.5542 45.9875L47.2126 43.3042L48.5542 45.9875ZM116.318 12.1056L114.976 9.42228L116.318 12.1056ZM117.213 12.1056L115.871 14.7888L117.213 12.1056ZM31.3182 54.6055L29.9765 51.9222L31.3182 54.6055ZM20.9766 59.7763L19.6349 57.0931L20.9766 59.7763ZM0.554285 57.9875L-0.787356 55.3042L0.554285 57.9875ZM117.213 0.105573L118.554 -2.57771L117.213 0.105573ZM116.318 0.105573L117.66 2.78885L116.318 0.105573ZM212.549 59.7705L213.925 57.1047L212.549 59.7705ZM202.599 54.6348L203.975 51.9689L202.599 54.6348ZM232.976 57.9875L234.318 55.3042L232.976 57.9875ZM43.7654 80.8819H33.7654V86.8819H43.7654V80.8819ZM41.7654 71.8819V82.8819H47.7654V71.8819H41.7654ZM41.7654 60.8819V71.8819H47.7654V60.8819H41.7654ZM188.14 56.8819H45.7654V62.8819H188.14V56.8819ZM192.14 130.882V60.8819H186.14V130.882H192.14ZM177.765 134.882H188.14V128.882H177.765V134.882ZM179.765 142.882V132.882H173.765V142.882H179.765ZM200.14 140.882H177.765V146.882H200.14V140.882ZM198.14 55.5234V142.882H204.14V55.5234H198.14ZM213.925 57.1047L203.975 51.9689L201.223 57.3006L211.173 62.4364L213.925 57.1047ZM232.529 56.8819H213.008V62.8819H232.529V56.8819ZM115.871 2.78885L231.635 60.6708L234.318 55.3042L118.554 -2.57771L115.871 2.78885ZM1.89593 60.6708L117.66 2.78885L114.976 -2.57771L-0.787356 55.3042L1.89593 60.6708ZM20.5294 56.8819H1.0015V62.8819H20.5294V56.8819ZM29.9765 51.9222L19.6349 57.0931L22.3182 62.4596L32.6598 57.2888L29.9765 51.9222ZM35.7654 82.8819V55.4999H29.7654V82.8819H35.7654ZM114.976 9.42228L47.2126 43.3042L49.8959 48.6708L117.66 14.7888L114.976 9.42228ZM186.318 43.3042L118.554 9.42228L115.871 14.7888L183.635 48.6708L186.318 43.3042ZM49.0014 50.8819H184.529V44.8819H49.0014V50.8819ZM183.635 48.6708C181.747 47.727 182.419 44.8819 184.529 44.8819V50.8819C188.75 50.8819 190.093 45.1918 186.318 43.3042L183.635 48.6708ZM47.2126 43.3042C43.4373 45.1918 44.7805 50.8819 49.0014 50.8819V44.8819C51.1119 44.8819 51.7835 47.727 49.8959 48.6708L47.2126 43.3042ZM117.66 14.7888C117.097 15.0704 116.434 15.0704 115.871 14.7888L118.554 9.42228C117.428 8.85923 116.103 8.85922 114.976 9.42228L117.66 14.7888ZM32.6598 57.2888C31.33 57.9537 29.7654 56.9867 29.7654 55.4999H35.7654C35.7654 52.5264 32.6361 50.5924 29.9765 51.9222L32.6598 57.2888ZM20.5294 62.8819C21.1503 62.8819 21.7628 62.7373 22.3182 62.4596L19.6349 57.0931C19.9126 56.9542 20.2189 56.8819 20.5294 56.8819V62.8819ZM-0.787356 55.3042C-4.56262 57.1918 -3.21942 62.8819 1.0015 62.8819V56.8819C3.11197 56.8819 3.78355 59.7269 1.89593 60.6708L-0.787356 55.3042ZM118.554 -2.57771C117.428 -3.14076 116.103 -3.14076 114.976 -2.57771L117.66 2.78885C117.097 3.07038 116.434 3.07038 115.871 2.78885L118.554 -2.57771ZM211.173 62.4364C211.741 62.7291 212.37 62.8819 213.008 62.8819V56.8819C213.327 56.8819 213.642 56.9583 213.925 57.1047L211.173 62.4364ZM204.14 55.5234C204.14 57.0214 202.554 57.9877 201.223 57.3006L203.975 51.9689C201.312 50.5948 198.14 52.5274 198.14 55.5234H204.14ZM200.14 146.882C202.349 146.882 204.14 145.091 204.14 142.882H198.14C198.14 141.777 199.036 140.882 200.14 140.882V146.882ZM173.765 142.882C173.765 145.091 175.556 146.882 177.765 146.882V140.882C178.87 140.882 179.765 141.777 179.765 142.882H173.765ZM177.765 128.882C175.556 128.882 173.765 130.673 173.765 132.882H179.765C179.765 133.986 178.87 134.882 177.765 134.882V128.882ZM188.14 62.8819C187.036 62.8819 186.14 61.9865 186.14 60.8819H192.14C192.14 58.6728 190.349 56.8819 188.14 56.8819V62.8819ZM47.7654 60.8819C47.7654 61.9865 46.87 62.8819 45.7654 62.8819V56.8819C43.5563 56.8819 41.7654 58.6728 41.7654 60.8819H47.7654ZM33.7654 80.8819C34.87 80.8819 35.7654 81.7773 35.7654 82.8819H29.7654C29.7654 85.091 31.5563 86.8819 33.7654 86.8819V80.8819ZM186.14 130.882C186.14 129.777 187.036 128.882 188.14 128.882V134.882C190.349 134.882 192.14 133.091 192.14 130.882H186.14ZM232.529 62.8819C236.75 62.8819 238.093 57.1919 234.318 55.3042L231.635 60.6708C229.747 59.7269 230.419 56.8819 232.529 56.8819V62.8819ZM43.7654 86.8819C45.9745 86.8819 47.7654 85.091 47.7654 82.8819H41.7654C41.7654 81.7773 42.6608 80.8819 43.7654 80.8819V86.8819Z" fill="black" mask="url(#path-5-inside-2_92_67)"/>
<path d="M162.765 73.882H171.014V81.882H162.765V73.882Z" fill="#FFD522"/>
</svg>
